{"title":"[MARATHI] Sasu Numbari Jawai Dus Numbari 2008 x264 [TMB]","uid":8306873,"size":819840352,"categoryP":"video","categoryS":"movies","magnet":"?xt=urn:btih:952b1d200ef30fcea7965c15155c8668b246a437&amp;dn=%5BMARATHI%5D+Sasu+Numbari+Jawai+Dus+Numbari+2008+x264+%5BTMB%5D&amp;tr=udp%3A%2F%2Ftracker.openbittorrent.com%3A80&amp;tr=udp%3A%2F%2Fopen.demonii.com%3A1337&amp;tr=udp%3A%2F%2Ftracker.coppersurfer.tk%3A6969&amp;tr=udp%3A%2F%2Fexodus.desync.com%3A6969","seeders":0,"leechers":1,"uploader":"SJonam","files":1,"time":1364394716,"description":" &lt;a href=&quot;http://desibbrg.org/images/66952052392581364616.gif&quot; rel=&quot;nofollow&quot; target=&quot;_NEW&quot;&gt;http://desibbrg.org/images/66952052392581364616.gif&lt;/a&gt; &lt;a href=&quot;\nhttp://desibbrg.org/images/08258638244256201323.jpg&quot; rel=&quot;nofollow&quot; target=&quot;_NEW&quot;&gt;\nhttp://desibbrg.org/images/08258638244256201323.jpg&lt;/a&gt; &lt;a href=&quot;\nhttp://desibbrg.org/images/29204826899578824139.png&quot; rel=&quot;nofollow&quot; target=&quot;_NEW&quot;&gt;\nhttp://desibbrg.org/images/29204826899578824139.png&lt;/a&gt; &lt;a href=&quot;\nhttp://desibbrg.org/images/03524513277540524422.png&quot; rel=&quot;nofollow&quot; target=&quot;_NEW&quot;&gt;\nhttp://desibbrg.org/images/03524513277540524422.png&lt;/a&gt; &lt;a href=&quot;\nhttp://desibbrg.org/images/28515078889757386807.png&quot; rel=&quot;nofollow&quot; target=&quot;_NEW&quot;&gt;\nhttp://desibbrg.org/images/28515078889757386807.png&lt;/a&gt; &lt;a href=&quot;\nhttp://desibbrg.org/images/90266322941815657280.png&quot; rel=&quot;nofollow&quot; target=&quot;_NEW&quot;&gt;\nhttp://desibbrg.org/images/90266322941815657280.png&lt;/a&gt; &lt;a href=&quot;\nhttp://desibbrg.org/images/03442398224564841234.png&quot; rel=&quot;nofollow&quot; target=&quot;_NEW&quot;&gt;\nhttp://desibbrg.org/images/03442398224564841234.png&lt;/a&gt;\n\nMedia Info - \nVideo\nID                             : 1\nFormat                         : AVC\nFormat/Info                    : Advanced Video Codec\nFormat profile                 : &lt;a class=&quot;__cf_email__&quot; href=&quot;/cdn-cgi/l/email-protection&quot; data-cfemail=&quot;e4a9858d8aa4a8d7cad4&quot;&gt;[email&amp;#160;protected]&lt;/a&gt;&lt;script cf-hash='f9e31' type=&quot;text/javascript&quot;&gt;\n/* &lt;![CDATA[ */!function(){try{var t=&quot;currentScript&quot;in document?document.currentScript:function(){for(var t=document.getElementsByTagName(&quot;script&quot;),e=t.length;e--;)if(t[e].getAttribute(&quot;cf-hash&quot;))return t[e]}();if(t&amp;&amp;t.previousSibling){var e,r,n,i,c=t.previousSibling,a=c.getAttribute(&quot;data-cfemail&quot;);if(a){for(e=&quot;&quot;,r=parseInt(a.substr(0,2),16),n=2;a.length-n;n+=2)i=parseInt(a.substr(n,2),16)^r,e+=String.fromCharCode(i);e=document.createTextNode(e),c.parentNode.replaceChild(e,c)}}}catch(u){}}();/* ]]&gt; */&lt;/script&gt;\nFormat settings, CABAC         : Yes\nFormat settings, ReFrames      : 4 frames\nCodec ID                       : avc1\nCodec ID/Info                  : Advanced Video Coding\nDuration                       : 2h 11mn\nBit rate mode                  : Variable\nBit rate                       : 679 Kbps\nWidth                          : 640 pixels\nHeight                         : 310 pixels\nDisplay aspect ratio           : 2.065\nFrame rate mode                : Variable\nFrame rate                     : 29.970 fps\nMinimum frame rate             : 29.412 fps\nMaximum frame rate             : 30.303 fps\nColor space                    : YUV\nChroma subsampling             : 4:2:0\nBit depth                      : 8 bits\nScan type                      : Progressive\nBits/(Pixel*Frame)             : 0.114\nStream size                    : 641 MiB (82%)\nWriting library                : x264 core 120\nColor primaries                : BT.601 NTSC\nTransfer characteristics       : BT.709\nMatrix coefficients            : BT.601\n\nAudio\nID                             : 2\nFormat                         : AAC\nFormat/Info                    : Advanced Audio Codec\nFormat profile                 : LC\nCodec ID                       : 40\nDuration                       : 2h 11mn\nBit rate mode                  : Variable\nBit rate                       : 144 Kbps\nMaximum bit rate               : 179 Kbps\nChannel(s)                     : 2 channels\nChannel positions              : Front: L R\nSampling rate                  : 44.1 KHz\nCompression mode               : Lossy\nDelay relative to video        : 67ms\nStream size                    : 135 MiB (17%)\n\nSample - http://filesflash.com/p4sywcgh\n\nRipper : SaketSaket\n\nSeeding 24x7... Extreme Seeding...\n\n\nEnjoy!\n","torrent":{"xt":"urn:btih:952b1d200ef30fcea7965c15155c8668b246a437","amp;dn":"%5BMARATHI%5D+Sasu+Numbari+Jawai+Dus+Numbari+2008+x264+%5BTMB%5D","amp;tr":["udp%3A%2F%2Ftracker.openbittorrent.com%3A80","udp%3A%2F%2Fopen.demonii.com%3A1337","udp%3A%2F%2Ftracker.coppersurfer.tk%3A6969","udp%3A%2F%2Fexodus.desync.com%3A6969"],"infoHash":"952b1d200ef30fcea7965c15155c8668b246a437","infoHashBuffer":{"type":"Buffer","data":[149,43,29,32,14,243,15,206,167,150,92,21,21,92,134,104,178,70,164,55]},"announce":[],"urlList":[]}}